<svg width="54" height="42" viewBox="0 0 54 42" fill="none" xmlns="http://www.w3.org/2000/svg">
<path fill-rule="evenodd" clip-rule="evenodd" d="M0.75 1.875C0.75 1.37772 0.947544 0.900806 1.29917 0.549175C1.65081 0.197544 2.12772 0 2.625 0H51.375C51.8723 0 52.3492 0.197544 52.7008 0.549175C53.0525 0.900806 53.25 1.37772 53.25 1.875C53.25 2.37228 53.0525 2.84919 52.7008 3.20082C52.3492 3.55246 51.8723 3.75 51.375 3.75H2.625C2.12772 3.75 1.65081 3.55246 1.29917 3.20082C0.947544 2.84919 0.75 2.37228 0.75 1.875ZM27 11.25C27.4973 11.25 27.9742 11.4475 28.3258 11.7992C28.6775 12.1508 28.875 12.6277 28.875 13.125V34.8487L36.9225 26.7975C37.2746 26.4454 37.7521 26.2476 38.25 26.2476C38.7479 26.2476 39.2254 26.4454 39.5775 26.7975C39.9296 27.1496 40.1274 27.6271 40.1274 28.125C40.1274 28.6229 39.9296 29.1004 39.5775 29.4525L28.3275 40.7025C28.1533 40.8771 27.9464 41.0156 27.7186 41.1102C27.4908 41.2047 27.2466 41.2533 27 41.2533C26.7534 41.2533 26.5092 41.2047 26.2814 41.1102C26.0536 41.0156 25.8467 40.8771 25.6725 40.7025L14.4225 29.4525C14.0704 29.1004 13.8726 28.6229 13.8726 28.125C13.8726 27.6271 14.0704 27.1496 14.4225 26.7975C14.7746 26.4454 15.2521 26.2476 15.75 26.2476C16.2479 26.2476 16.7254 26.4454 17.0775 26.7975L25.125 34.8487V13.125C25.125 12.6277 25.3225 12.1508 25.6742 11.7992C26.0258 11.4475 26.5027 11.25 27 11.25Z" fill="white"/>
</svg>
