<svg width="39" height="39" viewBox="0 0 39 39" fill="none" xmlns="http://www.w3.org/2000/svg">
<g clip-path="url(#clip0)">
<path d="M29.6546 21.7914C28.3774 24.3801 26.6468 26.9589 24.8771 29.2746C23.1984 31.4576 21.4034 33.5488 19.5 35.5389C17.5965 33.5488 15.8015 31.4577 14.1229 29.2746C12.3533 26.9589 10.6226 24.3801 9.34538 21.7914C8.0535 19.176 7.3125 16.7263 7.3125 14.6252C7.3125 11.3929 8.59654 8.29292 10.8821 6.00732C13.1677 3.72172 16.2677 2.43768 19.5 2.43768C22.7323 2.43768 25.8323 3.72172 28.1179 6.00732C30.4035 8.29292 31.6875 11.3929 31.6875 14.6252C31.6875 16.7263 30.9441 19.176 29.6546 21.7914ZM19.5 39.0002C19.5 39.0002 34.125 25.1406 34.125 14.6252C34.125 10.7464 32.5842 7.02647 29.8414 4.28375C27.0987 1.54103 23.3788 0.000183105 19.5 0.000183105C15.6212 0.000183105 11.9013 1.54103 9.15856 4.28375C6.41584 7.02647 4.875 10.7464 4.875 14.6252C4.875 25.1406 19.5 39.0002 19.5 39.0002Z" fill="white"/>
<path d="M19.5 19.5002C18.2071 19.5002 16.9671 18.9866 16.0529 18.0723C15.1386 17.1581 14.625 15.9181 14.625 14.6252C14.625 13.3323 15.1386 12.0923 16.0529 11.178C16.9671 10.2638 18.2071 9.75018 19.5 9.75018C20.7929 9.75018 22.0329 10.2638 22.9471 11.178C23.8614 12.0923 24.375 13.3323 24.375 14.6252C24.375 15.9181 23.8614 17.1581 22.9471 18.0723C22.0329 18.9866 20.7929 19.5002 19.5 19.5002ZM19.5 21.9377C21.4394 21.9377 23.2994 21.1673 24.6707 19.7959C26.0421 18.4245 26.8125 16.5646 26.8125 14.6252C26.8125 12.6858 26.0421 10.8258 24.6707 9.45446C23.2994 8.08311 21.4394 7.31268 19.5 7.31268C17.5606 7.31268 15.7006 8.08311 14.3293 9.45446C12.9579 10.8258 12.1875 12.6858 12.1875 14.6252C12.1875 16.5646 12.9579 18.4245 14.3293 19.7959C15.7006 21.1673 17.5606 21.9377 19.5 21.9377Z" fill="white"/>
</g>
<defs>
<clipPath id="clip0">
<rect width="39" height="39" fill="white" transform="translate(0 0.000183105)"/>
</clipPath>
</defs>
</svg>
