<svg width="37" height="37" viewBox="0 0 37 37" fill="none" xmlns="http://www.w3.org/2000/svg">
<path d="M19.6852 11.0197L24.9803 16.3123L19.6852 11.0197ZM23.0903 6.35709L8.77255 20.6748C8.03276 21.4136 7.52822 22.3548 7.32252 23.3799L6 30L12.6201 28.675C13.6451 28.47 14.5851 27.9675 15.3252 27.2275L29.6429 12.9097C30.0732 12.4795 30.4145 11.9687 30.6473 11.4065C30.8802 10.8444 31 10.2419 31 9.6334C31 9.02493 30.8802 8.42242 30.6473 7.86027C30.4145 7.29812 30.0732 6.78734 29.6429 6.35709C29.2127 5.92684 28.7019 5.58555 28.1397 5.3527C27.5776 5.11985 26.9751 5 26.3666 5C25.7581 5 25.1556 5.11985 24.5935 5.3527C24.0313 5.58555 23.5205 5.92684 23.0903 6.35709V6.35709Z" stroke="white" stroke-width="2" stroke-linecap="round" stroke-linejoin="round"/>
</svg>
